<?xml version="1.0" encoding="iso-8859-1"?>
<!-- Generator: Adobe Illustrator 19.0.0, SVG Export Plug-In . SVG Version: 6.00 Build 0)  -->
<svg version="1.1" id="Layer_1" xmlns="http://www.w3.org/2000/svg" xmlns:xlink="http://www.w3.org/1999/xlink" x="0px" y="0px"
	 viewBox="0 0 389.689 389.689" style="enable-background:new 0 0 389.689 389.689;" xml:space="preserve">
<path style="fill:#56ACE0;" d="M313.535,21.657H76.154c-27.087,0-49.325,22.238-49.325,49.325s22.238,49.325,49.325,49.325h236.865
	c27.087,0,49.325-22.238,49.325-49.325S340.622,21.657,313.535,21.657z"/>
<g>
	<path style="fill:#FFFFFF;" d="M93.479,70.982c0-9.244-7.564-17.325-17.325-17.325c-9.244,0-17.325,7.564-17.325,17.325
		s7.564,17.325,17.325,17.325S93.479,80.743,93.479,70.982z"/>
	<path style="fill:#FFFFFF;" d="M313.535,54.174c-9.244,0-17.325,7.564-17.325,17.325s7.564,17.325,17.325,17.325
		c9.244,0,17.325-7.564,17.325-17.325S322.78,54.174,313.535,54.174z"/>
	<rect x="99.426" y="142.545" style="fill:#FFFFFF;" width="190.255" height="226.004"/>
</g>
<rect x="121.147" y="164.202" style="fill:#FFC10D;" width="146.877" height="182.626"/>
<g>
	<path style="fill:#194F82;" d="M313.535,142.545c39.046,0,70.982-32,70.982-70.982S352.582,0,313.535,0H76.154
		C37.107,0,5.172,32,5.172,70.982s31.935,70.982,70.982,70.982h1.616v226.004H42.537c-5.947,0-10.861,4.849-10.861,10.861
		c0,6.012,4.913,10.861,10.861,10.861H346.57c5.947,0,10.861-4.849,10.861-10.861c0-6.012-4.848-10.861-10.861-10.861h-35.232
		V142.545H313.535z M26.828,70.982c0-27.087,22.238-49.325,49.325-49.325h236.865c27.087,0,49.325,22.238,49.325,49.325
		s-22.238,49.325-49.325,49.325H76.154C49.067,120.824,26.828,98.651,26.828,70.982z M290.263,368.549H99.426V142.545h190.255
		V368.55L290.263,368.549L290.263,368.549z"/>
	<path style="fill:#194F82;" d="M76.154,32.517c-21.139,0-39.046,17.325-39.046,39.046s17.325,39.046,39.046,39.046
		c21.139,0,39.046-17.325,39.046-39.046S97.81,32.517,76.154,32.517z M76.154,88.307c-9.244,0-17.325-7.564-17.325-17.325
		s7.564-17.325,17.325-17.325c9.244,0,17.325,7.564,17.325,17.325C93.479,80.743,85.915,88.307,76.154,88.307z"/>
	<path style="fill:#194F82;" d="M352,70.982c0-21.139-17.325-39.046-39.046-39.046s-39.046,17.325-39.046,39.046
		s17.325,39.046,39.046,39.046S352,92.703,352,70.982z M296.21,70.982c0-9.244,7.564-17.325,17.325-17.325
		c9.244,0,17.325,7.564,17.325,17.325s-7.564,17.325-17.325,17.325S296.21,80.743,296.21,70.982z"/>
	<path style="fill:#194F82;" d="M160.711,337.648c5.947,0,10.861-4.849,10.861-10.861V184.242c0-5.947-4.848-10.861-10.861-10.861
		c-5.947,0-10.861,4.848-10.861,10.861v142.545C149.85,332.735,154.764,337.648,160.711,337.648z"/>
	<path style="fill:#194F82;" d="M228.978,337.648c5.947,0,10.861-4.849,10.861-10.861V184.242c0-5.947-4.848-10.861-10.861-10.861
		c-5.947,0-10.861,4.848-10.861,10.861v142.545C218.117,332.735,223.03,337.648,228.978,337.648z"/>
	<path style="fill:#194F82;" d="M160.711,37.366c-5.947,0-10.861,4.848-10.861,10.861v46.093c0,5.947,4.848,10.861,10.861,10.861
		c5.947,0,10.861-4.848,10.861-10.861V48.226C171.572,42.279,166.659,37.366,160.711,37.366z"/>
	<path style="fill:#194F82;" d="M228.978,37.366c-5.947,0-10.861,4.848-10.861,10.861v46.093c0,5.947,4.848,10.861,10.861,10.861
		c5.947,0,10.861-4.848,10.861-10.861V48.226C239.838,42.279,234.925,37.366,228.978,37.366z"/>
</g>
<g>
</g>
<g>
</g>
<g>
</g>
<g>
</g>
<g>
</g>
<g>
</g>
<g>
</g>
<g>
</g>
<g>
</g>
<g>
</g>
<g>
</g>
<g>
</g>
<g>
</g>
<g>
</g>
<g>
</g>
</svg>
