<?xml version="1.0" encoding="iso-8859-1"?>
<!-- Generator: Adobe Illustrator 19.0.0, SVG Export Plug-In . SVG Version: 6.00 Build 0)  -->
<svg version="1.1" id="Layer_1" xmlns="http://www.w3.org/2000/svg" xmlns:xlink="http://www.w3.org/1999/xlink" x="0px" y="0px"
	 viewBox="0 0 512 512" style="enable-background:new 0 0 512 512;" xml:space="preserve">
<rect x="7.918" y="7.918" style="fill:#595E62;" width="496.165" height="496.165"/>
<polygon style="fill:#63686C;" points="504.082,7.918 7.918,7.918 7.918,504.082 65.979,504.082 504.082,65.979 "/>
<path d="M512,512H0V0h512V512z M15.835,496.165h480.33V15.835H15.835V496.165z"/>
<polygon style="fill:#FFD311;" points="456.577,50.144 456.577,145.155 308.784,145.155 308.784,461.856 203.217,461.856 
	203.217,145.155 55.423,145.155 55.423,50.144 "/>
<polygon style="fill:#FABD1B;" points="55.423,50.144 55.423,145.155 203.217,145.155 203.217,461.856 256,461.856 256,50.144 "/>
<path d="M316.701,469.773H195.299V153.072H47.505V42.227h416.99v110.845H316.701V469.773z M211.134,453.938h89.732V137.237H448.66
	V58.062H63.34v79.175h147.794V453.938z"/>
<g>
	<polygon style="fill:#FFFFFF;" points="97.649,475.052 36.948,475.052 36.948,234.887 52.784,234.887 52.784,459.217 
		97.649,459.217 	"/>
	<rect x="118.763" y="459.217" style="fill:#FFFFFF;" width="21.113" height="15.835"/>
	<polygon style="fill:#FFFFFF;" points="100.289,113.485 84.454,113.485 84.454,79.175 234.887,79.175 234.887,95.01 100.289,95.01 
			"/>
	<rect x="250.722" y="79.175" style="fill:#FFFFFF;" width="26.392" height="15.835"/>
</g>
<g>
</g>
<g>
</g>
<g>
</g>
<g>
</g>
<g>
</g>
<g>
</g>
<g>
</g>
<g>
</g>
<g>
</g>
<g>
</g>
<g>
</g>
<g>
</g>
<g>
</g>
<g>
</g>
<g>
</g>
</svg>
