<?xml version="1.0" encoding="UTF-8" standalone="no"?>
<!-- Created with Inkscape (http://www.inkscape.org/) -->

<svg
   xmlns:dc="http://purl.org/dc/elements/1.1/"
   xmlns:cc="http://creativecommons.org/ns#"
   xmlns:rdf="http://www.w3.org/1999/02/22-rdf-syntax-ns#"
   xmlns:svg="http://www.w3.org/2000/svg"
   xmlns="http://www.w3.org/2000/svg"
   xmlns:sodipodi="http://sodipodi.sourceforge.net/DTD/sodipodi-0.dtd"
   xmlns:inkscape="http://www.inkscape.org/namespaces/inkscape"
   version="1.1"
   id="svg103289"
   xml:space="preserve"
   width="800"
   height="800"
   viewBox="0 0 800 800"
   sodipodi:docname="runner-silhouette-publicdomainvectors.org.svg"
   inkscape:version="0.92.4 (5da689c313, 2019-01-14)"><metadata
     id="metadata103295"><rdf:RDF><cc:Work
         rdf:about=""><dc:format>image/svg+xml</dc:format><dc:type
           rdf:resource="http://purl.org/dc/dcmitype/StillImage" /><dc:title></dc:title></cc:Work></rdf:RDF></metadata><defs
     id="defs103293"><clipPath
       clipPathUnits="userSpaceOnUse"
       id="clipPath103305"><path
         d="M 0,600 H 600 V 0 H 0 Z"
         id="path103303"
         inkscape:connector-curvature="0" /></clipPath></defs><sodipodi:namedview
     pagecolor="#ffffff"
     bordercolor="#666666"
     borderopacity="1"
     objecttolerance="10"
     gridtolerance="10"
     guidetolerance="10"
     inkscape:pageopacity="0"
     inkscape:pageshadow="2"
     inkscape:window-width="797"
     inkscape:window-height="480"
     id="namedview103291"
     showgrid="false"
     inkscape:zoom="0.295"
     inkscape:cx="400"
     inkscape:cy="400"
     inkscape:window-x="0"
     inkscape:window-y="0"
     inkscape:window-maximized="0"
     inkscape:current-layer="g103297" /><g
     id="g103297"
     inkscape:groupmode="layer"
     inkscape:label="runner-silhouette-publicdomainvectors.org"
     transform="matrix(1.3333333,0,0,-1.3333333,0,800)"><g
       id="g103299"><g
         id="g103301"
         clip-path="url(#clipPath103305)"><path
           d="m 255.317,389.969 c -3.768,0.017 -7.233,-0.221 -10.466,-0.365 -3.199,-0.281 -6.103,-0.463 -8.805,-0.782 -2.719,-0.344 -5.143,-0.653 -7.254,-0.921 -1.888,-0.291 -3.494,-0.541 -4.795,-0.741 -2.575,-0.407 -12.049,-1.817 -12.049,-1.817 l 5.007,-35.731 h 0.002 l -2.122,15.14 c 0,0 12.249,1.037 15.137,1.49 0.723,0.113 1.529,0.24 2.418,0.381 0.443,0.069 0.908,0.142 1.392,0.217 0.547,0.073 1.116,0.146 1.708,0.223 2.366,0.287 5.118,0.685 8.122,0.981 4.357,0.38 9.413,0.788 15.135,0.897 1.132,1.867 2.521,4.018 3.081,5.212 0.92,1.973 -0.67,9.193 -3.581,15.823 -0.995,0.008 -1.971,0.005 -2.93,-0.007"
           style="fill:#ed1f24;fill-opacity:1;fill-rule:nonzero;stroke:none"
           id="path103307"
           inkscape:connector-curvature="0" /><path
           d="m 389.459,324.691 c -1.784,0.954 -3.583,1.986 -5.378,3.049 -2.715,1.611 -5.42,3.311 -8.03,5.073 -4.358,2.974 -8.607,6.14 -12.807,9.414 -8.392,6.544 -16.647,13.573 -25.418,20.085 -4.399,3.251 -8.93,6.359 -13.591,9.219 -4.67,2.859 -9.517,5.386 -14.386,7.627 -9.807,4.364 -19.806,7.319 -29.116,8.854 -3.713,0.627 -7.308,1.074 -10.77,1.387 3.511,-7.827 6.217,-14.308 6.448,-16.232 0,0 1.18,-2.451 2.487,-5.174 4.766,-0.552 9.764,-1.383 14.927,-2.622 5.167,-1.283 10.49,-2.874 15.797,-4.978 5.293,-2.117 10.593,-4.622 15.738,-7.532 10.286,-5.843 19.878,-13.106 29.07,-20.508 9.208,-7.398 18.228,-14.856 27.974,-21.262 0.785,-0.512 1.574,-1.007 2.36,-1.507 2.009,-0.792 3.984,-1.59 6.128,-2.356 2.727,-0.935 5.445,-2.008 8.155,-2.811 0.029,-0.009 0.056,-0.019 0.084,-0.026 2.739,-0.855 5.452,-1.742 8.225,-2.452 l 4.126,-1.116 4.162,-0.955 c 11.061,-2.542 22.255,-3.849 33.082,-3.847 10.825,-0.052 21.265,1.406 30.799,3.849 9.538,2.504 18.179,5.985 25.686,9.966 7.528,3.949 13.994,8.248 19.431,12.391 5.44,4.139 9.913,8.048 13.463,11.393 3.563,3.336 6.238,6.071 8.043,7.947 1.79,1.894 2.746,2.904 2.746,2.904 0,0 -1.04,-0.921 -2.99,-2.646 -1.963,-1.707 -4.864,-4.188 -8.68,-7.172 -3.805,-2.994 -8.563,-6.458 -14.241,-10.028 -5.67,-3.575 -12.325,-7.183 -19.871,-10.319 -7.525,-3.174 -16.006,-5.726 -25.119,-7.27 -9.12,-1.484 -18.878,-1.967 -28.848,-1.026 -9.971,0.887 -20.143,3.002 -30.152,6.264 l -3.757,1.219 -3.727,1.378 c -2.498,0.875 -4.949,1.935 -7.415,2.948 -1.309,0.514 -2.569,1.086 -3.82,1.665 -1.132,0.525 -2.258,1.056 -3.405,1.562 -2.391,1.097 -4.945,2.438 -7.41,3.645"
           style="fill:#ed1f24;fill-opacity:1;fill-rule:nonzero;stroke:none"
           id="path103309"
           inkscape:connector-curvature="0" /><path
           d="m 258.887,350.636 c 1.333,1.89 1.688,6.457 1.604,9.009 -0.009,-0.02 -0.023,-0.036 -0.03,-0.058 -0.303,-0.909 -1.821,-4.399 -4.703,-4.853 1.82,2.578 1.82,10.164 1.365,10.771 -0.217,0.288 0.599,1.746 1.624,3.436 -5.723,-0.108 -10.779,-0.517 -15.135,-0.896 -3.006,-0.298 -5.756,-0.694 -8.121,-0.982 -0.592,-0.077 -1.163,-0.151 -1.709,-0.222 -0.484,-0.077 -0.949,-0.149 -1.393,-0.218 -0.889,-0.141 -1.696,-0.268 -2.418,-0.38 -2.888,-0.455 -15.138,-1.49 -15.138,-1.49 l 2.124,-15.139 0.927,-6.614 c 0.014,0.002 13.06,2.414 15.949,2.867 0.722,0.115 1.529,0.241 2.417,0.381 0.443,0.069 0.908,0.142 1.392,0.218 0.548,0.071 1.117,0.145 1.709,0.222 2.366,0.287 5.117,0.685 8.122,0.983 4.609,0.401 10.005,0.833 16.143,0.911 -0.053,2.262 -0.104,4.677 -0.131,6.624 -0.465,-1.194 -1.957,-4.153 -4.598,-4.57"
           style="fill:#f68716;fill-opacity:1;fill-rule:nonzero;stroke:none"
           id="path103311"
           inkscape:connector-curvature="0" /><path
           d="m 276.594,348.187 c 0.685,-0.05 1.375,-0.102 2.072,-0.161 l -2.285,3.475 c -0.011,-0.64 0.077,-1.843 0.213,-3.314"
           style="fill:#f68716;fill-opacity:1;fill-rule:nonzero;stroke:none"
           id="path103313"
           inkscape:connector-curvature="0" /><path
           d="m 270.536,348.505 0.051,-10e-4 -0.029,0.114 c -0.008,-0.038 -0.015,-0.075 -0.022,-0.113"
           style="fill:#f68716;fill-opacity:1;fill-rule:nonzero;stroke:none"
           id="path103315"
           inkscape:connector-curvature="0" /><path
           d="m 384.766,309.584 c -0.788,0.5 -1.578,0.995 -2.362,1.507 -9.746,6.406 -18.765,13.864 -27.974,21.262 -9.192,7.402 -18.784,14.665 -29.07,20.508 -5.146,2.91 -10.447,5.415 -15.739,7.532 -5.306,2.104 -10.629,3.694 -15.794,4.978 -5.164,1.239 -10.163,2.07 -14.929,2.622 1.408,-2.93 2.96,-6.175 3.353,-7.039 0.759,-1.669 6.222,-11.683 6.525,-12.29 -0.456,-0.605 -1.972,-0.151 -1.972,-0.151 0,0 -4.856,5.766 -5.007,5.006 -0.071,-0.355 0.86,-3.151 1.87,-6.018 4.492,-0.551 9.179,-1.343 14.021,-2.505 5.166,-1.283 10.49,-2.873 15.794,-4.978 5.293,-2.116 10.593,-4.621 15.741,-7.532 10.285,-5.842 19.878,-13.105 29.068,-20.506 9.207,-7.397 18.228,-14.857 27.974,-21.265 0.753,-0.486 1.507,-0.964 2.26,-1.44 l 0.861,-0.34 2.169,-0.838 4.351,-1.679 0.104,-0.034 4.555,-1.566 c 3.108,-1.119 6.206,-2.017 9.304,-2.922 3.075,-0.974 6.246,-1.65 9.363,-2.461 3.132,-0.759 6.309,-1.342 9.45,-1.998 6.341,-1.072 12.672,-2.008 19.003,-2.429 6.315,-0.563 12.611,-0.577 18.8,-0.477 6.191,0.252 12.29,0.667 18.23,1.526 11.89,1.584 23.155,4.341 33.475,7.864 10.332,3.492 19.75,7.656 28.126,12.029 16.765,8.781 29.346,18.245 37.805,25.146 4.221,3.477 7.432,6.322 9.59,8.297 2.148,1.978 3.293,3.035 3.293,3.035 0,0 -1.217,-0.971 -3.5,-2.795 -2.29,-1.809 -5.691,-4.413 -10.125,-7.563 -8.881,-6.248 -22.007,-14.706 -38.986,-22.103 -8.481,-3.682 -17.914,-7.063 -28.097,-9.711 -10.169,-2.68 -21.116,-4.531 -32.477,-5.223 -5.674,-0.412 -11.458,-0.385 -17.284,-0.21 -5.823,0.326 -11.703,0.757 -17.563,1.707 -5.875,0.816 -11.714,2.119 -17.529,3.528 -2.882,0.831 -5.786,1.571 -8.646,2.487 -2.844,0.969 -5.727,1.792 -8.524,2.909 -2.818,1.049 -5.64,2.088 -8.314,3.278 l -4.06,1.717 -3.164,1.488 -1.052,0.494 c -4.602,2.056 -8.787,4.527 -12.917,7.153"
           style="fill:#f68716;fill-opacity:1;fill-rule:nonzero;stroke:none"
           id="path103317"
           inkscape:connector-curvature="0" /><path
           d="m 597.365,309.259 c -2.291,-1.809 -5.69,-4.413 -10.125,-7.564 -8.881,-6.246 -22.008,-14.706 -38.986,-22.102 -8.483,-3.683 -17.914,-7.063 -28.096,-9.711 -10.173,-2.68 -21.118,-4.532 -32.479,-5.224 -5.674,-0.41 -11.457,-0.384 -17.283,-0.209 -5.823,0.327 -11.704,0.758 -17.563,1.706 -5.875,0.816 -11.716,2.12 -17.529,3.531 -2.882,0.829 -5.785,1.569 -8.644,2.483 -2.847,0.972 -5.729,1.795 -8.526,2.912 -2.819,1.049 -5.64,2.089 -8.314,3.278 l -4.061,1.715 -4.216,1.982 c -2.021,0.904 -3.944,1.906 -5.834,2.943 -2.45,1.349 -4.833,2.778 -7.184,4.276 -0.753,0.476 -1.509,0.955 -2.259,1.44 -9.748,6.408 -18.768,13.868 -27.977,21.265 -9.19,7.401 -18.783,14.664 -29.066,20.507 -5.148,2.911 -10.448,5.414 -15.741,7.532 -5.305,2.105 -10.629,3.694 -15.794,4.977 -4.841,1.161 -9.529,1.955 -14.021,2.504 1.14,-3.242 2.377,-6.574 2.377,-6.574 h -2.274 l -2.694,4.097 h -0.437 l -1.974,3.002 c -0.697,0.061 -1.385,0.113 -2.071,0.163 0.441,-4.715 1.41,-12.116 1.41,-12.116 0,0 -1.671,0.303 -2.125,0.607 -0.148,0.1 -0.544,1.559 -1.05,3.498 -0.222,0.041 -1.66,0.318 -2.079,0.598 -0.248,0.165 -1.174,4.081 -2.162,7.729 l -0.052,10e-4 c -0.606,-3.254 -1.052,-9.189 -1.786,-10.766 -1.063,-2.277 -1.821,-0.302 -1.821,-0.302 0,0 -0.151,5.289 -0.251,10.06 -0.314,-2.435 -0.637,-4.76 -1.059,-5.66 -1.061,-2.277 -1.82,-0.304 -1.82,-0.304 0,0 -0.093,3.307 -0.183,7.05 -6.138,-0.079 -11.534,-0.512 -16.143,-0.913 -3.005,-0.297 -5.756,-0.694 -8.122,-0.982 -0.592,-0.076 -1.161,-0.15 -1.709,-0.222 -0.484,-0.076 -0.949,-0.149 -1.392,-0.217 -0.888,-0.141 -1.695,-0.268 -2.417,-0.381 -2.889,-0.453 -15.935,-2.865 -15.949,-2.867 l 1.679,-4.42 c 1.166,-2.509 21.623,-9.491 28.107,-26.143 1.808,0.423 2.614,0.682 4.995,1.205 4.837,0.991 10.737,2.174 17.438,2.789 6.695,0.609 14.215,0.832 22.24,-0.113 3.999,-0.514 8.154,-1.218 12.393,-2.348 4.236,-1.145 8.59,-2.588 13.033,-4.448 8.882,-3.747 18.116,-9.085 27.912,-15.264 9.487,-5.949 19.631,-12.528 30.737,-18.202 0.373,-0.191 0.739,-0.388 1.114,-0.578 2.878,-1.458 5.842,-2.811 8.823,-4.134 l 4.546,-1.86 0.576,-0.226 1.769,-0.698 2.17,-0.837 4.352,-1.681 4.659,-1.598 c 3.107,-1.12 6.206,-2.017 9.302,-2.924 3.077,-0.973 6.248,-1.65 9.363,-2.459 3.135,-0.76 6.309,-1.341 9.451,-1.999 6.34,-1.071 12.673,-2.008 19.003,-2.429 6.314,-0.562 12.612,-0.576 18.799,-0.478 6.192,0.254 12.292,0.667 18.228,1.527 11.893,1.585 23.157,4.342 33.477,7.864 10.333,3.49 19.75,7.656 28.128,12.028 16.763,8.781 29.344,18.246 37.804,25.145 4.221,3.478 7.431,6.324 9.59,8.296 2.149,1.984 3.293,3.039 3.293,3.039 0,0 -1.217,-0.973 -3.5,-2.796"
           style="fill:#ed1f24;fill-opacity:1;fill-rule:nonzero;stroke:none"
           id="path103319"
           inkscape:connector-curvature="0" /><path
           d="m 400.471,327.989 c 0,108.064 -87.917,195.98 -195.982,195.98 -108.063,0 -195.98,-87.916 -195.98,-195.98 0,-73.141 40.281,-137.042 99.818,-170.71 -8.073,-2.932 -11.489,-5.687 -3.378,-7.064 0.007,0 0.017,-0.003 0.027,-0.003 8.04,-1.353 20.166,2.583 31.984,3.49 4.332,0.333 19.117,1.82 21.393,4.249 2.275,2.43 -5.916,15.928 -7.737,21.847 -3.387,11.011 0.909,30.194 0,50.524 -0.359,7.995 -2.125,13.167 -4.228,16.711 -1.546,2.607 -3.27,4.332 -4.754,5.642 -1.634,1.437 -2.978,2.377 -3.459,3.439 -1.517,3.336 54.273,11.998 59.431,16.247 -3.114,4.665 -11.639,20.926 -10.881,20.47 2.213,-2.239 4.282,-4.821 6.307,-7.647 6.585,-9.188 12.72,-21.011 21.856,-32.514 3.85,-4.851 8.23,-9.643 13.408,-14.155 18.96,-16.522 24.619,-23.731 27.019,-27.249 0.289,-0.422 0.534,-0.797 0.747,-1.122 0.082,-0.031 0.156,-0.049 0.236,-0.079 8.002,-2.877 10.746,0.575 24.038,-2.804 13.429,-3.414 66.226,-19.573 72.598,-30.725 8.278,-9.538 19.399,-12.251 22.114,-21.296 0.718,-2.392 0.855,-5.219 0.19,-8.743 1.288,-0.814 2.448,-0.922 3.492,-0.581 2.453,0.806 4.257,4.154 5.534,7.029 1.821,4.097 1.973,12.138 -1.821,19.419 -3.339,6.409 -9.493,22.92 -11.958,31.858 -0.334,1.216 -0.604,2.299 -0.786,3.19 -3.202,1.938 -7.156,1.052 -11.042,-0.292 13.811,17.577 24.672,37.571 31.864,59.223 l -14.978,6.966 c -7.986,-24.93 -21.261,-47.516 -38.531,-66.401 -16.786,6.876 -35.577,23.687 -43.78,24.931 -7.151,1.083 -15.19,0.472 -20.501,5.223 -2.127,1.903 -3.817,4.66 -4.837,8.735 -4.55,18.205 -21.933,38.98 -20.784,45.97 1.057,6.444 1.899,13.762 -3.842,22.458 -3.993,6.046 -11.185,12.761 -23.704,20.314 -0.43,0.257 -0.841,0.513 -1.28,0.774 -8.497,10.619 -10.015,71.612 -13.96,83.445 0,0 3.119,-6.536 4.195,-8.708 0.19,-0.383 0.324,-0.647 0.358,-0.697 0.301,0.073 0.64,0.153 1.006,0.237 5.275,1.222 16.661,3.514 20.385,5.11 3.983,1.707 8.876,-0.456 9.899,-1.706 0.873,-1.066 9.567,-9.55 14.476,-16.543 0.857,-1.221 1.613,-2.403 2.177,-3.484 0.505,-0.969 0.98,-1.972 1.427,-2.99 2.911,-6.633 4.501,-13.852 3.581,-15.824 -0.56,-1.194 -1.949,-3.346 -3.081,-5.212 -1.025,-1.69 -1.841,-3.149 -1.624,-3.436 0.455,-0.606 0.455,-8.193 -1.365,-10.772 2.882,0.455 4.4,3.944 4.703,4.854 0.006,0.021 0.021,0.037 0.03,0.057 0.407,0.844 3.153,0.672 3.004,-0.663 -0.042,-0.371 -0.037,-1.84 -0.01,-3.774 0.028,-1.947 0.079,-4.363 0.133,-6.626 0.088,-3.741 0.181,-7.048 0.181,-7.048 0,0 0.759,-1.972 1.82,0.303 0.422,0.901 0.745,3.227 1.06,5.661 0.481,3.72 0.938,7.695 1.672,7.236 0.545,-0.34 1.394,-3.122 2.207,-6.114 l 0.03,-0.116 c 0.987,-3.646 1.914,-7.562 2.162,-7.728 0.421,-0.28 1.857,-0.558 2.079,-0.599 0.019,-0.004 0.044,-0.009 0.044,-0.009 0,0 -2.123,16.234 -1.516,15.932 l 3.022,-4.597 2.286,-3.477 1.974,-3.003 h 2.278 c 0,0 -4.403,11.835 -4.25,12.593 0.151,0.76 5.007,-5.007 5.007,-5.007 0,0 1.518,-0.454 1.972,0.153 -0.303,0.605 -5.765,10.62 -6.523,12.289 -0.759,1.669 -5.842,12.213 -5.842,12.213 -0.613,5.113 -18.673,42.362 -22.995,51.688 -0.486,1.052 -0.808,1.768 -0.9,2.022 -0.912,2.502 -5.92,3.64 -12.29,3.64 -6.373,0 -35.048,3.414 -43.924,2.049 -4.986,-0.768 -8.825,-0.241 -11.351,0.409 -1.968,0.504 -3.141,1.084 -3.442,1.184 -0.681,0.227 2.506,10.81 2.732,16.5 0.139,3.449 -0.579,10.363 -4.194,16.342 -2.347,3.884 -5.905,7.378 -11.282,9.26 -13.655,4.779 -28.446,-6.486 -28.446,-6.486 -4.894,-6.371 -6.373,-6.145 -5.69,-6.941 0.683,-0.797 -2.459,-13.291 -0.683,-17.183 0.482,-1.056 1.795,-1.6 2.709,-2.461 0.596,-0.56 1.023,-1.255 0.932,-2.317 0,-0.01 -0.003,-0.021 -0.004,-0.03 -0.37,-4.239 -3.606,-9.559 -2.243,-10.24 1.123,-0.561 2.825,-0.167 3.59,-0.342 0.166,-0.037 0.304,-0.092 0.364,-0.199 0.39,-0.684 1.639,-1.654 1.518,-3.857 -0.007,-0.102 0.002,-0.191 -0.01,-0.299 -0.142,-1.29 2.019,-2.178 2.019,-3.884 0,-0.449 0.625,-0.283 1.135,-0.472 0.219,-0.082 0.42,-0.222 0.534,-0.515 0.136,-0.34 0.287,-0.704 0.443,-1.065 0.371,-0.857 0.767,-1.686 1.056,-2.18 0.02,-0.034 20.517,10.538 21.071,9.541 0.401,-0.722 -10.919,-6.089 -19.101,-11.825 -3.415,-2.394 -6.287,-4.851 -7.527,-7.063 -5.376,-9.589 -3.641,-18.321 -5.803,-20.37 -2.162,-2.047 -9.56,-15.702 -11.265,-19.798 -3.85,-1.621 -18.236,4.779 -23.843,9.416 -0.692,0.573 -1.258,1.12 -1.647,1.622 -2.516,3.247 -2.952,7.473 -4.233,10.747 -0.513,1.316 -1.16,2.481 -2.138,3.362 -3.415,3.073 -3.642,0.854 -4.608,1.935 -0.849,0.948 -1.424,0.455 -3.927,1.934 -1.153,0.68 -3.376,-0.146 -5.86,-3.47 -1.271,-1.703 -1.501,-4.418 -2.163,-6.657 -0.85,-2.89 -1.749,-5.487 0.512,-9.331 0.56,-0.95 1.328,-1.66 2.241,-2.237 3.806,-2.409 10.191,-2.462 15.056,-7.579 6.031,-6.343 23.057,-23.298 27.345,-24.435 4.289,-1.138 14.53,0 21.812,15.249 7.282,15.246 8.042,15.701 8.042,15.701 -0.48,-3.028 0.247,-5.091 1.572,-6.725 0.523,-0.646 1.139,-1.228 1.819,-1.769 2.765,-2.203 6.507,-3.812 8.822,-6.981 0.413,-0.567 0.949,-1.373 1.576,-2.372 5.907,-9.428 19.997,-36.266 18.83,-45.8 -29.737,-5.765 -59.406,-40.891 -65.239,-42.48 -1.669,-0.457 -4.4,-7.134 -1.366,-11.381 3.036,-4.247 21.999,-68.878 20.937,-75.858 -0.634,-3.538 -4.744,-11.254 -10.151,-17.602 -58.518,29.638 -98.728,90.371 -98.728,160.329 0,99.029 80.566,179.595 179.594,179.595 97.687,0 177.401,-78.398 179.545,-175.578 l 16.369,-8.661 c 0.04,1.543 0.068,3.09 0.068,4.644 M 319.868,190.478 c 5.76,-2.361 11.421,-4.873 16.438,-7.392 -34.834,-31.715 -81.106,-51.078 -131.817,-51.078 -27.364,0 -53.431,5.647 -77.111,15.821 4.141,0.726 8.445,1.448 12.711,1.776 4.217,0.328 18.334,1.744 21.181,4.057 13.85,-3.433 28.323,-5.267 43.219,-5.267 43.894,0 84.15,15.835 115.379,42.083"
           style="fill:#110f0d;fill-opacity:1;fill-rule:nonzero;stroke:none"
           id="path103321"
           inkscape:connector-curvature="0" /></g></g></g></svg>